<svg xmlns="http://www.w3.org/2000/svg" height="800" width="1200" viewBox="-23.1714 -14.1474 200.8188 84.8844"><defs><radialGradient fx="0" fy="0" cx="0" cy="0" r="1" gradientUnits="userSpaceOnUse" gradientTransform="translate(20.7235 26.3505) scale(16.51261)" spreadMethod="pad" id="a"><stop offset="0" stop-color="#bfe6f9"/><stop offset="1" stop-color="#1478c7"/></radialGradient><radialGradient fx="0" fy="0" cx="0" cy="0" r="1" gradientUnits="userSpaceOnUse" gradientTransform="translate(131.1264 151.5394) scale(20.25662)" spreadMethod="pad" id="b"><stop offset="0" stop-color="#a6d71c"/><stop offset=".9607" stop-color="#23a03d"/><stop offset="1" stop-color="#23a03d"/></radialGradient><radialGradient fx="0" fy="0" cx="0" cy="0" r="1" gradientUnits="userSpaceOnUse" gradientTransform="translate(136.2466 150.217) scale(25.74596)" spreadMethod="pad" id="c"><stop offset="0" stop-color="#a6d71c"/><stop offset=".9607" stop-color="#23a03d"/><stop offset="1" stop-color="#23a03d"/></radialGradient><radialGradient fx="0" fy="0" cx="0" cy="0" r="1" gradientUnits="userSpaceOnUse" gradientTransform="translate(138.1343 139.2309) scale(34.03128)" spreadMethod="pad" id="d"><stop offset="0" stop-color="#a6d71c"/><stop offset=".9607" stop-color="#23a03d"/><stop offset="1" stop-color="#23a03d"/></radialGradient></defs><path d="M149.4131 0c-2.8577 0-4.932 2.2718-4.932 4.807 0 2.5352 2.0743 4.809 4.932 4.809 2.8552 0 5.0629-2.0713 5.0629-4.809 0-2.7364-2.2077-4.807-5.0629-4.807zm-70.986 14.4152c-9.0794 0-16.345 6.3237-16.345 15.7844 0 9.4582 7.2656 15.7884 16.345 15.7884 4.1428 0 8.0425-1.2886 11.2978-4.4613l-4.7426-4.7426c-1.7701 1.8627-4.0404 3.1897-7.2994 3.1897-4.2003 0-7.584-2.7003-8.0866-7.1431H92.524V30.766c0-10.4658-5.6961-16.351-14.0968-16.351zm29.1585 0c-6.078 0-12.0927 3.0042-12.0927 9.7097 0 11.466 16.224 6.5766 16.224 12.7784 0 2.3801-2.8176 3.4436-5.0102 3.4436-3.1853 0-5.188-1.556-7.1256-3.68l-4.8539 4.854c3.0478 3.304 6.9878 4.467 11.542 4.467 6.1354 0 12.9697-2.5073 12.9697-9.6491 0-11.7172-16.2279-7.3305-16.2279-12.7159 0-2.2564 2.3814-3.1975 4.389-3.1975 2.5503 0 4.4269 1.0575 5.8658 3.0452l4.7796-4.7758c-2.4752-3.0902-6.577-4.2796-10.4598-4.2796zm31.651 0c-3.9504 0-7.2723 2.066-8.9012 5.5063h-.121v-4.7563h-7.5163V45.234h7.5162V29.133c0-1.6276.999-7.5787 8.0807-7.5787 1.0901 0 2.176.2151 3.3187.4864l.293-7.194c-.8689-.2462-1.7401-.4316-2.6702-.4316zm6.4829.75V45.234h7.5142V15.1652zm-68.355 4.8832c4.6979 0 7.5809 2.7603 7.6471 7.1432H69.5963c.565-4.3229 3.3229-7.1432 7.7682-7.1432z" fill="#231f20"/><path d="M4.8914 30.669c0 12.8598 10.4283 23.2856 23.2843 23.2856 12.8597 0 23.2855-10.4258 23.2855-23.2856 0-12.8572-10.4258-23.283-23.2855-23.283-12.856 0-23.2843 10.4258-23.2843 23.283" fill="url(#a)" transform="translate(-1 -.9882)"/><path d="M129.668 137.309c-1.795.0737-3.5138.3138-5.2288.5688-4.8563 4.1237-7.995 10.1987-8.2063 17.0175 1.3725 1.4475 3.185 4.715 5.275 6.605.2763-.1225.5763-.2275.8975-.325-1.0262-1.1913-2.46-2.7713-2.6762-3.4988-1.0563-3.5612.1675-6.8962 2.81-7.1587 2.37-.2388 4.4025-3.7638 6.0725-6.075 3.4362-4.755 8.7175-3.9613 8.4512-6.3413-.3037-1.39-1.1275-1.8137-2.175-1.8137-1.5762-.002-3.655.96-5.22 1.0212" fill="url(#b)" transform="translate(-112.3319 -125.959) scale(1.00008)"/><path d="M123.403 160.8915c-.3438.0987-.6776.1888-.9976.2838-.2862.0775-.51.19-.8975.325-.8537.3812-1.4725.965-1.6175 2.2137-.26 2.2613 1.8913 4.0375 3.7025 4.5563 2.3013.6587 2.4938-.1113 3.7 1.5187.8425 1.14 1.005 3.2538 1.4363 4.645.24.7775.5662 1.5513.9562 2.3075 1.6438.765 3.3875 1.3475 5.2113 1.7113.4525-2.68.2487-6.3013.8462-7.865 1.2313-3.2025 1.9238-4.615.2663-7.92-3.6588-1.0338-4.7675-1.3613-8.4538-2.1163-.75-.155-1.2187-.2325-1.6412-.2325-.655 0-1.195.1888-2.5113.5725" fill="url(#c)" transform="translate(-112.3319 -125.959) scale(1.00008)"/><path d="M146.0442 142.329c-1.0775 1.54-4.8613 1.9625-6.075 3.6963-.945 1.3537.0325 4.0125-.7913 5.5462-.38.7075-.205 2.76.2575 3.4288 1.4575 2.12 3.8788.9412 5.7 1.705 2.2213.9275 2.4763 3.505 4.32 5.3912 1.8463 1.8875-2.3562 4.7975 1.0738 11.6625.3662.7375.7937 1.2775 1.2512 1.6463 2.32-1.4425 4.3613-3.2813 6.0413-5.4238.52-3.4662-.6513-4.5762.8137-7.75.9013-1.9575 2.45-5.3462 4.1188-7.6437-.2838-6.43-3.1713-12.1813-7.6363-16.2238-.4187.1163-.9512.1363-1.6787.004-.625-.1137-1.1863-.165-1.6963-.165-3.445 0-4.47 2.3713-5.6987 4.1263" fill="url(#d)" transform="translate(-112.3319 -125.959) scale(1.00008)"/><path d="M24.516 54.3916c-.7712-.4426-1.7388-1.1276-2.6414-1.7252-.3738.3313-.6763.8176-.975 1.2076 1.0338.3538 2.4289.3838 3.6165.5176m-4.0728-2.7665c-1.6514-1.2314-5.7392-5.108-7.4331-7.4456-.6226.3663-1.3164 1.3639-2.2177 1.5364-.355.065-1.1513.1637-1.3876.065-.235-.0975.0537-.595.3088-.9276.4413-.5763 1.0838-1.3238 2.0251-2.0527-2.0151-2.9527-2.9714-5.1104-4.3416-8.6706-.7925.4938-1.3676.935-2.0576 1.485-.2325.1826-.8726.2989-1.1826.02-.5638-.5062-.5726-1.395.2188-1.9588.3262-.2338 1.9364-1.3451 2.3126-1.6589-.9913-2.8552-1.8201-6.6093-2.0389-8.5544-.66.5738-1.5888 1.2263-1.8501 1.4039-.375.1062-.6263-.0138-.7338-.0325-.3763 4.039.0575 8.4856 1.2588 12.501 2.064 6.903 7.8531 13.4872 15.665 15.9362.1825-.2726 1.08-1.3114 1.4539-1.6464M4.4083 21.3652c-.0987-1.4938-.2176-3.539-.2176-3.539-1.0975 2.3852-1.7538 3.824-2.0589 6.6093.7676-1.3601 2.2765-3.0703 2.2765-3.0703M16.1304 4.2827c4.5379-1.879 8.9545-2.9103 14.0549-2.2127.5663.0775.5188.5588-.0825.5638l-.7201.0188c-4.1078.0637-10.1483 1.3688-13.2748 3.139-.065 2.0839.33 5.3966.7476 8.0068 2.8402-1.1938 7.2318-2.4214 10.567-2.7877-1.8938-2.0114-4.469-3.9153-4.7766-4.1365-.3087-.22-.4625-.5963-.4625-1.0826.0438-.9089.8238-1.0214 1.2426-.9139 1.3876-.2712 2.7677-.5712 5.1179-.5025 9.9358-.4338 19.014 5.1867 22.478 11.5947 8.777 13.8798.004 33.03-11.4897 38.1292-4.914 2.1827-9.1294 3.1227-16.9 2.0389-7.7844-1.0863-14.1486-4.8916-19.0915-12.891-6.0892-9.8583-2.6615-21.343-1.8064-23.7506C5.4008 10.852 11.4088 6.2716 16.1304 4.2827M5.8596 14.786c-.1337 1.0401.005 2.959.2663 5.2504 2.1127-1.8901 6.1955-4.3553 9.6082-5.8617-.395-2.6002-.815-6.748-.7713-7.8518-3.1565 1.7313-6.6205 5.2129-9.1594 8.7819m.52 7.023c.2988 2.0602 1.2876 6.5043 2.179 8.7582 2.1138-1.5913 6.9005-4.544 9.6094-5.7392-.9475-3.4515-1.585-5.6304-2.1151-9.1132-3.829 1.7027-7.8781 4.3491-9.6733 6.0942M9.3274 32.88c1.255 3.5803 2.469 6.313 4.054 8.5682 1.8527-1.6126 5.653-4.1578 8.5595-5.5492-.9576-2.0576-2.339-5.9042-3.3015-8.7844-3.7428 1.8376-6.538 3.629-9.312 5.7654m5.2379 10.132c1.9702 2.5265 5.0554 5.733 7.2018 7.5044 2.0314-1.6326 4.3341-3.159 6.2493-4.089-1.6527-2.5615-4.0941-6.283-5.1167-8.5707-3.6653 1.625-5.7467 2.9864-8.3344 5.1554m8.4657 8.6206c.7813.7901 3.8778 2.8403 3.8778 2.8403 2.0614.0888 4.6628-.1538 6.5217-.4776-1.025-1.17-3.5828-4.7916-4.359-6.0104-1.9815.8313-4.4892 2.3601-6.0405 3.6477m12.5697 1.834c1.0438-.335 3.704-1.5427 4.2578-1.9065.1313-2.1451.11-4.5803.0213-6.0392-2.7964 0-6.7343.8188-8.9907 1.7639 1.3089 2.1077 3.1153 4.4303 4.7116 6.1817m5.733-2.7014c2.0989-1.3101 4.0716-2.8152 5.503-4.6254-1.2314-.31-3.9841-.6838-5.3493-.5963 0 0-.0437 3.2728-.1537 5.2217m6.163-5.4667c.3962-.3963.99-1.2364 1.2213-1.7264.2313-1.9889.2388-6.068.1538-7.258-2.399-.9739-6.1068-1.744-8.8157-1.9427.88 3.2315 1.3213 7.9856 1.3876 9.5345 1.2988.1325 4.5778.7975 6.053 1.3926m3.5215-9.2245c-.1088.3763-.7713.755-1.0801.66.0463.6689-.1088 3.9891-.285 5.2705.4613-.9463 1.3413-3.2978 1.6064-4.2916l.3737-1.4601c.3713-1.2414 1.574-5.5304.4838-11.1721-1.2076-6.268-3.4765-8.5057-4.269-9.5008-2.0152-1.095-5.063-2.0901-5.063-2.0901 2.7628 3.7403 3.719 5.5004 5.3717 9.9545.9588.4975 2.6965 1.4614 2.9127 1.7264.175.2075.1776.5825-.3675.5738-.455-.004-1.335-.4376-2.0176-.62.7263 2.4276 1.2876 6.958 1.2463 9.9945 0 0 1.1976.58 1.0876.955m-4.6216-22.5842C42.565 8.798 33.8944 4.8077 24.241 5.4077c2.1564 1.4227 3.9528 3.5704 5.5254 5.338 2.4102-.2213 7.4731.1775 9.3758.7038-.3238-.3825-.7213-.7625-.8251-.9888-.27-.58.38-.705.9013-.3725.6613.4212 1.4226.9263 2.0277 1.5426 1.1188.2512 3.8728 1.195 5.1504 1.8589m2.454 21.1554c-.1663-3.0265-.6289-7.068-1.7502-9.882-2.9727-1.1926-7.033-1.939-10.5983-1.9727 1.1 2.5652 2.3789 6.8543 3.004 9.6132 2.5751.3088 6.603 1.0376 9.3444 2.2415m-8.3544-21.643c-2.6852-.4863-6.6017-.7963-9.5082-.6213 1.9814 2.7452 3.434 5.1342 4.7979 8.5394 3.6765.0913 8.6719 1.1889 10.7195 1.994-1.2213-3.259-3.544-7.3969-6.0092-9.912M23.6573 35.1013c4.3804-2.0127 9.1907-2.919 14.0324-2.7878-1.3214-4.5778-2.079-6.703-3.2028-9.4895-5.3804.2338-9.9708 1.5602-14.1523 3.5416 0 0 1.54 4.9529 3.3227 8.7357M38.186 34.24c-5.4816-.0662-10.2658 1.2451-13.536 2.8528 1.3851 2.9864 4.1253 6.938 5.1504 8.5669 1.7814-.6626 3.6978-1.1614 5.1829-1.3939 1.4864-.2313 3.4665-.4488 4.8091-.425-.2425-3.4753-.65-5.8192-1.6064-9.6008m-18.4726-9.7582c3.9628-1.6827 8.2568-3.029 14.0473-3.5153-1.4751-3.539-3.1027-6.038-5.0191-8.3281-4.2679.3425-8.1644 1.4926-11.5334 2.8852.495 2.6227 1.4313 5.7954 2.5052 8.9582" fill="#231f20"/></svg>