<svg version="1.1" id="Layer_1" xmlns:x="ns_extend;" xmlns:i="ns_ai;" xmlns:graph="ns_graphs;" xmlns="http://www.w3.org/2000/svg" xmlns:xlink="http://www.w3.org/1999/xlink" x="0px" y="0px" viewBox="0 0 255.1 53" style="enable-background:new 0 0 255.1 53;" xml:space="preserve">
 <style type="text/css">
  .st0{fill-rule:evenodd;clip-rule:evenodd;}
	.st1{fill-rule:evenodd;clip-rule:evenodd;fill:#03EF62;}
 </style>
 <metadata>
  <sfw xmlns="ns_sfw;">
   <slices>
   </slices>
   <sliceSourceBounds bottomLeftOrigin="true" height="53" width="255.1" x="31.4" y="-218.3">
   </sliceSourceBounds>
  </sfw>
 </metadata>
 <g transform="translate(0 .001)">
  <path class="st0" d="M62.8,40c-4.6,0-8.4-3.8-8.4-8.4s3.8-8.4,8.4-8.4s8.4,3.8,8.4,8.4S67.5,40,62.8,40 M71.2,9.6v13.1
		c-5-4.7-12.7-4.4-17.4,0.5s-4.4,12.7,0.5,17.4c4.7,4.4,12.1,4.4,16.8,0v2.7h3.9V9.6H71.2z M179.4,40c-4.6,0-8.4-3.8-8.4-8.4
		s3.8-8.4,8.4-8.4s8.4,3.8,8.4,8.4S184,40,179.4,40 M191.7,31.6V19.4h-3.9v3.2c-5-4.7-12.7-4.4-17.4,0.5c-4.7,5-4.4,12.7,0.5,17.4
		c4.7,4.4,12.1,4.4,16.8,0v2.7h3.9L191.7,31.6L191.7,31.6z M222.7,20.3c0.3-0.6,1-0.9,1.6-0.9h0.7c1.6,0,2.9,1.3,2.9,2.9v21h-4V25.5
		c-1.8,3-8.4,13.7-10.3,16.9c-0.3,0.6-1,0.9-1.6,0.9h-0.8c-1.1,0-1.9-0.9-1.9-1.9V25.4c-3.6,5.9-7.2,11.7-10.8,17.6l-0.1,0.2h-3.8
		V19.4h4v0.1l-0.1,16.5l9.5-15.6c0.3-0.6,1-0.9,1.6-0.9h0.8c1.6,0,2.9,1.3,2.9,2.9c0,4.4,0,12.4,0,13.5L222.7,20.3z M166.7,38.8
		c-4,5.5-11.7,6.7-17.2,2.7c-5.5-4-6.7-11.7-2.7-17.2s11.7-6.7,17.2-2.7c1.2,0.9,2.2,1.9,3,3.2l-3.7,1.9c-2.6-3.7-7.7-4.5-11.4-1.9
		c-3.7,2.6-4.5,7.7-1.9,11.4c2.6,3.7,7.7,4.5,11.4,1.9c0.5-0.4,1-0.8,1.4-1.2L166.7,38.8z M242.8,40c-4.4,0-8.1-3.5-8.4-7.9v-1
		c0.3-4.6,4.3-8.2,8.9-7.9s8.2,4.3,7.9,8.9C250.9,36.6,247.2,40,242.8,40 M242.8,19.3c-3.1,0-6.1,1.2-8.4,3.3v-3.2h-3.9V53h3.9V40.6
		c5,4.6,12.7,4.4,17.4-0.6s4.4-12.7-0.6-17.4C248.9,20.5,245.9,19.3,242.8,19.3 M111.1,23.1v14.7c0,0.9,0.7,1.6,1.6,1.6h4.5v3.9
		h-4.5c-3,0-5.5-2.4-5.5-5.5l0-14.7H103v-3.8h4.2v-6.5h3.9v6.5h6.9v3.8L111.1,23.1L111.1,23.1z M129.9,40c-4.6,0-8.4-3.8-8.4-8.4
		c0-4.6,3.8-8.4,8.4-8.4c0,0,0,0,0,0c4.6,0,8.4,3.8,8.4,8.4C138.3,36.2,134.6,40,129.9,40 M138.4,19.4v3.2c-5-4.7-12.7-4.4-17.4,0.5
		c-4.7,5-4.4,12.7,0.5,17.4c4.7,4.4,12.1,4.4,16.8,0v2.7h3.9V19.4L138.4,19.4z M89,40c-4.6,0-8.4-3.8-8.4-8.4s3.8-8.4,8.4-8.4
		s8.4,3.8,8.4,8.4S93.6,40,89,40L89,40 M97.4,19.4v3.2c-5-4.7-12.7-4.4-17.4,0.5c-4.7,5-4.4,12.7,0.5,17.4c4.7,4.4,12.1,4.4,16.8,0
		v2.7h3.9V19.4L97.4,19.4L97.4,19.4z">
  </path>
  <path class="st1" d="M17.3,12.6v12.3L4.2,32.3V5.1L17.3,12.6L17.3,12.6z M21.5,38.4V27.3l17.5-10l-4.3-2.4l-13.2,7.5V11.3
		c0-0.8-0.4-1.5-1.1-1.8L4.5,0.4C3-0.4,1.2,0.1,0.4,1.6C0.1,2,0,2.5,0,3v31.3c0,1.7,1.4,3.1,3,3.1c0.5,0,0.9-0.1,1.3-0.3L4.5,37
		l12.8-7.3v9.9c0,0.8,0.4,1.5,1.1,1.8l16.4,9.3l4.3-2.4L21.5,38.4z">
  </path>
 </g>
</svg>